<svg width="24" height="24" viewBox="0 0 24 24" fill="none" xmlns="http://www.w3.org/2000/svg">
<path d="M5.3673 21H9.5L18.1879 20.5427C18.6609 20.5178 19.0516 20.1644 19.1237 19.6962L19.8899 14.7154C19.9556 14.2885 20.2879 13.952 20.7139 13.881L21.6645 13.7226C22.3281 13.612 22.6954 12.8908 22.3945 12.289L21.1014 9.70288C21.0347 9.56932 20.9388 9.45242 20.821 9.36074L12.5563 2.93266C12.2227 2.6732 11.762 2.65146 11.4055 2.87835L6.64399 5.90837C6.54869 5.96902 6.46435 6.04538 6.39455 6.13421L1.8252 11.9498C1.41288 12.4745 1.62049 13.2482 2.24012 13.496L2.9632 13.7853C3.29531 13.9181 3.53118 14.2182 3.58176 14.5723L4.37735 20.1414C4.44772 20.6341 4.86964 21 5.3673 21Z" fill="url(#paint0_linear_7185_2044)"/>
<path fill-rule="evenodd" clip-rule="evenodd" d="M10.3528 2.2174C11.3336 1.54667 12.6665 1.54667 13.6474 2.21741L14.785 2.99536C18.1464 5.29413 21.0322 8.11776 23.3035 11.3373L23.6683 11.8546C24.1149 12.4876 24.0833 13.2495 23.7351 13.82C23.3943 14.3783 22.7714 14.7354 22.0654 14.7354H21.0926C21.1438 16.3266 21.054 18.236 20.8188 19.6105C20.5419 21.2291 19.0452 22.2858 17.4519 22.2858H6.54819C4.9549 22.2858 3.45819 21.2291 3.18134 19.6105C2.94624 18.236 2.85638 16.3266 2.90755 14.7354H1.93454C1.22858 14.7354 0.60559 14.3783 0.264789 13.82C-0.083453 13.2495 -0.114946 12.4876 0.331587 11.8546L0.696586 11.3372C2.96774 8.11773 5.85355 5.29414 9.21504 2.99544L10.3528 2.2174ZM12.4378 3.98623C12.1862 3.8142 11.8139 3.8142 11.5624 3.98623L10.4246 4.76426C7.26598 6.92426 4.56603 9.56942 2.44761 12.5724L2.43341 12.5925H4.04366C4.34477 12.5925 4.63198 12.7192 4.83497 12.9416C5.03798 13.164 5.13804 13.4615 5.11065 13.7614C4.96807 15.3228 5.03199 17.7203 5.29353 19.2493C5.36789 19.684 5.8338 20.1429 6.54819 20.1429H8.71248V16.0031C8.71248 14.1875 10.1843 12.7158 11.9998 12.7158C13.8153 12.7158 15.2871 14.1875 15.2871 16.0031V20.1429H17.4519C18.1663 20.1429 18.6322 19.684 18.7066 19.2493C18.9682 17.7203 19.0322 15.3228 18.8895 13.7614C18.8621 13.4615 18.9622 13.164 19.1652 12.9416C19.3682 12.7192 19.6553 12.5925 19.9565 12.5925H21.5666L21.5523 12.5725C19.434 9.56944 16.734 6.92422 13.5754 4.76417L12.4378 3.98623Z" fill="#F0F0F0"/>
<defs>
<linearGradient id="paint0_linear_7185_2044" x1="12" y1="2.5" x2="12" y2="21" gradientUnits="userSpaceOnUse">
<stop stop-color="#204A79"/>
<stop offset="1" stop-color="#204F79" stop-opacity="0"/>
</linearGradient>
</defs>
</svg>
