<svg width="278" height="278" viewBox="0 0 278 278" fill="none" xmlns="http://www.w3.org/2000/svg">
<g filter="url(#filter0_f_7171_15321)">
<circle cx="138.757" cy="138.757" r="88.7569" fill="#00AEFF" fill-opacity="0.14"/>
</g>
<g clip-path="url(#clip0_7171_15321)">
<path d="M140.308 29.7144L94.7983 177.928L140.308 258.708L185.817 177.928L140.308 29.7144Z" fill="#004275"/>
<path d="M140.308 76.75L115.663 157.016L140.308 200.762L164.954 157.016L140.308 76.75Z" fill="#007AC1"/>
<path d="M140.308 113.078L111.365 207.34L140.308 258.714L169.251 207.34L140.308 113.078Z" fill="#0B89CD"/>
<path d="M140.308 113.085L122.888 169.818L140.308 200.737L157.728 169.818L140.308 113.085Z" fill="#40CCFF"/>
<path d="M265.703 86.4653L209.672 126.654L204.03 167.549L241.9 151.238L265.703 86.4653Z" fill="#004275"/>
<path d="M253.035 103.12L222.691 124.886L219.636 147.033L240.145 138.198L253.035 103.12Z" fill="#007AC1"/>
<path d="M243.251 115.984L207.615 141.544L204.027 167.552L228.113 157.178L243.251 115.984Z" fill="#0B89CD"/>
<path d="M243.249 115.987L221.802 131.369L219.643 147.023L234.139 140.779L243.249 115.987Z" fill="#40CCFF"/>
<path d="M267.809 208.663L223.386 212.19L203.575 194.334L229.081 186.586L267.809 208.663Z" fill="#004275"/>
<path d="M254.615 205.72L230.557 207.63L219.828 197.96L233.641 193.764L254.615 205.72Z" fill="#007AC1"/>
<path d="M244.424 203.447L216.172 205.69L203.573 194.333L219.795 189.406L244.424 203.447Z" fill="#0B89CD"/>
<path d="M244.423 203.446L227.419 204.797L219.834 197.961L229.599 194.996L244.423 203.446Z" fill="#40CCFF"/>
<path d="M14.9126 86.4653L70.9438 126.654L76.5864 167.549L38.7153 151.238L14.9126 86.4653Z" fill="#004275"/>
<path d="M27.5815 103.12L57.9256 124.886L60.9797 147.033L40.4721 138.198L27.5815 103.12Z" fill="#007AC1"/>
<path d="M37.3647 115.984L73.0001 141.544L76.588 167.552L52.5034 157.178L37.3647 115.984Z" fill="#0B89CD"/>
<path d="M37.3662 115.987L58.8147 131.369L60.9742 147.023L46.4783 140.779L37.3662 115.987Z" fill="#40CCFF"/>
<path d="M12.8076 208.663L57.2296 212.19L77.0413 194.334L51.5339 186.586L12.8076 208.663Z" fill="#004275"/>
<path d="M26.002 205.72L50.0579 207.63L60.7876 197.96L46.9738 193.764L26.002 205.72Z" fill="#007AC1"/>
<path d="M36.1909 203.447L64.4435 205.69L77.0427 194.333L60.8215 189.406L36.1909 203.447Z" fill="#0B89CD"/>
<path d="M36.1938 203.446L53.1979 204.797L60.7809 197.961L51.018 194.996L36.1938 203.446Z" fill="#40CCFF"/>
</g>
<defs>
<filter id="filter0_f_7171_15321" x="0" y="0" width="277.514" height="277.514" filterUnits="userSpaceOnUse" color-interpolation-filters="sRGB">
<feFlood flood-opacity="0" result="BackgroundImageFix"/>
<feBlend mode="normal" in="SourceGraphic" in2="BackgroundImageFix" result="shape"/>
<feGaussianBlur stdDeviation="25" result="effect1_foregroundBlur_7171_15321"/>
</filter>
<clipPath id="clip0_7171_15321">
<rect width="255" height="229" fill="white" transform="translate(12.8076 29.7144)"/>
</clipPath>
</defs>
</svg>
