<svg width="22" height="22" viewBox="0 0 22 22" fill="none" xmlns="http://www.w3.org/2000/svg">
<path d="M9.40702 0C4.22617 0 0 4.13994 0 9.27897C0 14.4181 4.22617 18.558 9.40702 18.558C11.641 18.558 13.6975 17.7882 15.3142 16.5005L19.6669 20.8531C20.0574 21.2437 20.6906 21.2437 21.0811 20.8531C21.4716 20.4626 21.4716 19.8294 21.0811 19.4389L16.7374 15.0952C18.0356 13.506 18.814 11.4845 18.814 9.27897C18.814 4.13994 14.5878 0 9.40702 0ZM2 9.27897C2 5.27333 5.3017 2 9.40702 2C13.5123 2 16.814 5.27333 16.814 9.27897C16.814 13.2847 13.5123 16.558 9.40702 16.558C5.3017 16.558 2 13.2847 2 9.27897Z" fill="#AAE4FF"/>
</svg>
