<svg width="100" height="82" viewBox="0 0 100 82" fill="none" xmlns="http://www.w3.org/2000/svg">
<g filter="url(#filter0_f_6_7573)">
<circle cx="50" cy="32" r="26" fill="#00AEFF" fill-opacity="0.14"/>
</g>
<path d="M49.5 5L38.6133 40.5971L49.5 59.9984L60.3863 40.5971L49.5 5Z" fill="#004275"/>
<path d="M49.5011 16.2969L43.6055 35.5747L49.5011 46.0815L55.3967 35.5747L49.5011 16.2969Z" fill="#007AC1"/>
<path d="M49.4998 25.0215L42.5762 47.6608L49.4998 59.9996L56.4234 47.6608L49.4998 25.0215Z" fill="#0B89CD"/>
<path d="M49.4993 25.0234L45.332 38.6493L49.4993 46.0753L53.6663 38.6493L49.4993 25.0234Z" fill="#40CCFF"/>
<path d="M80.0005 47.979L69.3737 48.8262L64.6348 44.5376L70.7362 42.6768L80.0005 47.979Z" fill="#004275"/>
<path d="M76.8431 47.2719L71.0882 47.7307L68.5215 45.4081L71.826 44.4004L76.8431 47.2719Z" fill="#007AC1"/>
<path d="M74.4071 46.7258L67.6487 47.2645L64.6348 44.5368L68.5154 43.3535L74.4071 46.7258Z" fill="#0B89CD"/>
<path d="M74.4054 46.7258L70.3377 47.0503L68.5234 45.4086L70.8592 44.6963L74.4054 46.7258Z" fill="#40CCFF"/>
<path d="M79.4972 18.6309L66.0936 28.2832L64.7441 38.1052L73.8032 34.1877L79.4972 18.6309Z" fill="#004275"/>
<path d="M76.4663 22.6309L69.2075 27.8584L68.4766 33.1776L73.3826 31.0557L76.4663 22.6309Z" fill="#007AC1"/>
<path d="M74.125 25.7207L65.6005 31.8597L64.7422 38.106L70.5039 35.6144L74.125 25.7207Z" fill="#0B89CD"/>
<path d="M74.1256 25.7207L68.9951 29.4152L68.4785 33.1749L71.9462 31.6753L74.1256 25.7207Z" fill="#40CCFF"/>
<path d="M19.5039 18.6309L32.9075 28.2832L34.2573 38.1052L25.1979 34.1877L19.5039 18.6309Z" fill="#004275"/>
<path d="M22.5332 22.6309L29.792 27.8584L30.5226 33.1776L25.6168 31.0557L22.5332 22.6309Z" fill="#007AC1"/>
<path d="M24.875 25.7207L33.3995 31.8597L34.2578 38.106L28.4964 35.6144L24.875 25.7207Z" fill="#0B89CD"/>
<path d="M24.875 25.7207L30.0058 29.4152L30.5224 33.1749L27.0547 31.6753L24.875 25.7207Z" fill="#40CCFF"/>
<path d="M19 47.979L29.6264 48.8262L34.3657 44.5376L28.2639 42.6768L19 47.979Z" fill="#004275"/>
<path d="M22.1562 47.2719L27.9108 47.7307L30.4775 45.4081L27.1731 44.4004L22.1562 47.2719Z" fill="#007AC1"/>
<path d="M24.5938 46.7258L31.3522 47.2645L34.3661 44.5368L30.4858 43.3535L24.5938 46.7258Z" fill="#0B89CD"/>
<path d="M24.5938 46.7258L28.6614 47.0503L30.4754 45.4086L28.1399 44.6963L24.5938 46.7258Z" fill="#40CCFF"/>
<defs>
<filter id="filter0_f_6_7573" x="0" y="-18" width="100" height="100" filterUnits="userSpaceOnUse" color-interpolation-filters="sRGB">
<feFlood flood-opacity="0" result="BackgroundImageFix"/>
<feBlend mode="normal" in="SourceGraphic" in2="BackgroundImageFix" result="shape"/>
<feGaussianBlur stdDeviation="12" result="effect1_foregroundBlur_6_7573"/>
</filter>
</defs>
</svg>
