<svg width="15" height="26" viewBox="0 0 15 26" fill="none" xmlns="http://www.w3.org/2000/svg">
<rect x="0.3125" width="14" height="21" rx="6" fill="url(#paint0_linear_6_7610)"/>
<path d="M7.3125 19.0625C8.38994 19.0625 9.42325 18.6345 10.1851 17.8726C10.947 17.1108 11.375 16.0774 11.375 15V6.875C11.375 5.79756 10.947 4.76425 10.1851 4.00238C9.42325 3.24051 8.38994 2.8125 7.3125 2.8125C6.23506 2.8125 5.20175 3.24051 4.43988 4.00238C3.67801 4.76425 3.25 5.79756 3.25 6.875V15C3.25 16.0774 3.67801 17.1108 4.43988 17.8726C5.20175 18.6345 6.23506 19.0625 7.3125 19.0625ZM4.875 6.875C4.875 6.22853 5.13181 5.60855 5.58893 5.15143C6.04605 4.69431 6.66603 4.4375 7.3125 4.4375C7.95897 4.4375 8.57895 4.69431 9.03607 5.15143C9.49319 5.60855 9.75 6.22853 9.75 6.875V15C9.75 15.6465 9.49319 16.2665 9.03607 16.7236C8.57895 17.1807 7.95897 17.4375 7.3125 17.4375C6.66603 17.4375 6.04605 17.1807 5.58893 16.7236C5.13181 16.2665 4.875 15.6465 4.875 15V6.875Z" fill="#519CD2"/>
<path d="M13 12.0625V14.5C13 16.0084 12.4008 17.4551 11.3342 18.5217C10.2676 19.5883 8.82092 20.1875 7.3125 20.1875C5.80408 20.1875 4.35744 19.5883 3.29083 18.5217C2.22422 17.4551 1.625 16.0084 1.625 14.5V12.0625H0V14.5C0.000853509 16.2981 0.664181 18.0329 1.86324 19.3728C3.0623 20.7128 4.71302 21.564 6.5 21.7638V23.4375H3.25V25.0625H11.375V23.4375H8.125V21.7638C9.91198 21.564 11.5627 20.7128 12.7618 19.3728C13.9608 18.0329 14.6241 16.2981 14.625 14.5V12.0625H13Z" fill="#519CD2"/>
<defs>
<linearGradient id="paint0_linear_6_7610" x1="7.3125" y1="0" x2="7.3125" y2="21" gradientUnits="userSpaceOnUse">
<stop stop-color="#00B3FF" stop-opacity="0.54"/>
<stop offset="1" stop-color="#001D6B" stop-opacity="0.2"/>
</linearGradient>
</defs>
</svg>
